REM DIRINDEX 1\2,1\3,1\4,1\5
REM DIRNAME cjc093,folder01,folder02,folder03,folder04
TITLE ""
FILE "Round-09-198-199.mp3" MP3
  TRACK 01 AUDIO
    TITLE "0:"
    INDEX 01 00:00:00
  TRACK 02 AUDIO
    TITLE "2:cjc093_2179"
    INDEX 01 00:00:01
  TRACK 03 AUDIO
    TITLE "0:"
    INDEX 01 00:01:30
  TRACK 04 AUDIO
    TITLE "3:cjc093_2180"
    INDEX 01 00:01:64
  TRACK 05 AUDIO
    TITLE "0:"
    INDEX 01 00:03:61
  TRACK 06 AUDIO
    TITLE "4:cjc093_2181"
    INDEX 01 00:04:07
  TRACK 07 AUDIO
    TITLE "0:"
    INDEX 01 00:07:45
  TRACK 08 AUDIO
    TITLE "2:cjc093_2182"
    INDEX 01 00:08:58
  TRACK 09 AUDIO
    TITLE "0:"
    INDEX 01 00:10:08
  TRACK 10 AUDIO
    TITLE "3:cjc093_2183"
    INDEX 01 00:10:53
  TRACK 11 AUDIO
    TITLE "0:"
    INDEX 01 00:13:06
  TRACK 12 AUDIO
    TITLE "4:cjc093_2184"
    INDEX 01 00:13:33
  TRACK 13 AUDIO
    TITLE "0:"
    INDEX 01 00:19:07
  TRACK 14 AUDIO
    TITLE "2:cjc093_2185"
    INDEX 01 00:20:16
  TRACK 15 AUDIO
    TITLE "0:"
    INDEX 01 00:21:35
  TRACK 16 AUDIO
    TITLE "3:cjc093_2186"
    INDEX 01 00:22:32
  TRACK 17 AUDIO
    TITLE "0:"
    INDEX 01 00:24:43
  TRACK 18 AUDIO
    TITLE "4:cjc093_2187"
    INDEX 01 00:24:71
  TRACK 19 AUDIO
    TITLE "0:"
    INDEX 01 00:28:02
  TRACK 20 AUDIO
    TITLE "3:cjc093_2188"
    INDEX 01 00:29:15
  TRACK 21 AUDIO
    TITLE "0:"
    INDEX 01 00:30:32
  TRACK 22 AUDIO
    TITLE "4:cjc093_2189"
    INDEX 01 00:31:08
  TRACK 23 AUDIO
    TITLE "0:"
    INDEX 01 00:33:48
  TRACK 24 AUDIO
    TITLE "2:cjc093_2190"
    INDEX 01 00:35:00
  TRACK 25 AUDIO
    TITLE "0:"
    INDEX 01 00:36:15
  TRACK 26 AUDIO
    TITLE "3:cjc093_2191"
    INDEX 01 00:36:40
  TRACK 27 AUDIO
    TITLE "0:"
    INDEX 01 00:37:50
  TRACK 28 AUDIO
    TITLE "4:cjc093_2192"
    INDEX 01 00:37:69
  TRACK 29 AUDIO
    TITLE "0:"
    INDEX 01 00:40:17
  TRACK 30 AUDIO
    TITLE "3:cjc093_2193"
    INDEX 01 00:41:44
  TRACK 31 AUDIO
    TITLE "0:"
    INDEX 01 00:43:05
  TRACK 32 AUDIO
    TITLE "4:cjc093_2194"
    INDEX 01 00:43:60
  TRACK 33 AUDIO
    TITLE "0:"
    INDEX 01 00:46:60
  TRACK 34 AUDIO
    TITLE "2:cjc093_2195"
    INDEX 01 00:47:72
  TRACK 35 AUDIO
    TITLE "0:"
    INDEX 01 00:49:10
  TRACK 36 AUDIO
    TITLE "3:cjc093_2196"
    INDEX 01 00:49:61
  TRACK 37 AUDIO
    TITLE "0:"
    INDEX 01 00:52:30
  TRACK 38 AUDIO
    TITLE "4:cjc093_2197"
    INDEX 01 00:52:41
  TRACK 39 AUDIO
    TITLE "0:"
    INDEX 01 00:55:44
  TRACK 40 AUDIO
    TITLE "2:cjc093_2198"
    INDEX 01 00:56:57
  TRACK 41 AUDIO
    TITLE "0:"
    INDEX 01 00:57:66
  TRACK 42 AUDIO
    TITLE "3:cjc093_2199"
    INDEX 01 00:58:13
  TRACK 43 AUDIO
    TITLE "0:"
    INDEX 01 00:59:10
  TRACK 44 AUDIO
    TITLE "4:cjc093_2200"
    INDEX 01 00:59:49
  TRACK 45 AUDIO
    TITLE "0:"
    INDEX 01 01:02:44
  TRACK 46 AUDIO
    TITLE "2:cjc093_2201"
    INDEX 01 01:03:55
  TRACK 47 AUDIO
    TITLE "0:"
    INDEX 01 01:04:62
  TRACK 48 AUDIO
    TITLE "3:cjc093_2202"
    INDEX 01 01:05:11
  TRACK 49 AUDIO
    TITLE "0:"
    INDEX 01 01:07:19
  TRACK 50 AUDIO
    TITLE "4:cjc093_2203"
    INDEX 01 01:07:33
  TRACK 51 AUDIO
    TITLE "0:"
    INDEX 01 01:10:22
  TRACK 52 AUDIO
    TITLE "3:cjc093_2204"
    INDEX 01 01:11:31
  TRACK 53 AUDIO
    TITLE "0:"
    INDEX 01 01:12:36
  TRACK 54 AUDIO
    TITLE "4:cjc093_2205"
    INDEX 01 01:13:20
  TRACK 55 AUDIO
    TITLE "0:"
    INDEX 01 01:15:44
  TRACK 56 AUDIO
    TITLE "2:cjc093_2206"
    INDEX 01 01:16:54
  TRACK 57 AUDIO
    TITLE "0:"
    INDEX 01 01:17:65
  TRACK 58 AUDIO
    TITLE "3:cjc093_2207"
    INDEX 01 01:18:13
  TRACK 59 AUDIO
    TITLE "0:"
    INDEX 01 01:19:28
  TRACK 60 AUDIO
    TITLE "4:cjc093_2208"
    INDEX 01 01:19:64
  TRACK 61 AUDIO
    TITLE "0:"
    INDEX 01 01:22:41
